<svg id="Layer_1" data-name="Layer 1" xmlns="http://www.w3.org/2000/svg" viewBox="0 0 1024 535.15"><defs><style>.cls-1{fill:#fff;}</style></defs><path class="cls-1" d="M142.48,769.45,7,533.22a51.26,51.26,0,0,1,.09-51.15L142.5,247.9a11.78,11.78,0,0,1,16.11-4.3h0a51.24,51.24,0,0,1,18.69,70L68.42,501.87a11.83,11.83,0,0,0,0,11.78L177.51,703.88a51.25,51.25,0,0,1-18.93,69.94h0A11.8,11.8,0,0,1,142.48,769.45Z" transform="translate(-0.2 -242.01)"/><path class="cls-1" d="M881.92,771.23,1017.41,535a51.26,51.26,0,0,0-.09-51.15L881.9,249.68a11.79,11.79,0,0,0-16.11-4.31h0a51.25,51.25,0,0,0-18.69,70L956,503.64a11.83,11.83,0,0,1,0,11.78L846.89,705.66a51.24,51.24,0,0,0,18.93,69.93h0A11.8,11.8,0,0,0,881.92,771.23Z" transform="translate(-0.2 -242.01)"/><path class="cls-1" d="M219.41,665.79a93.46,93.46,0,0,1-39.75-40.87Q166,598.09,166,560.08V471.94q0-38,13.69-64.83a94.09,94.09,0,0,1,39.75-41Q245.47,352,282.12,352q30.25,0,54.1,13t39.42,37.89a137,137,0,0,1,9.06,17.14,30.5,30.5,0,0,1-27.86,42.84h-.51a30.52,30.52,0,0,1-27.75-18,68.74,68.74,0,0,0-5.06-9.21,52.39,52.39,0,0,0-17.88-17.24,46.83,46.83,0,0,0-23.52-6q-17,0-28.93,7A45,45,0,0,0,235,439.8q-6.28,13.36-6.29,32.14v88.14q0,18.78,6.29,32a45.18,45.18,0,0,0,18.22,20.21q11.93,7,28.93,7A48.44,48.44,0,0,0,306,613.43a50.13,50.13,0,0,0,17.88-17.12,65.55,65.55,0,0,0,4.9-9.1,30.57,30.57,0,0,1,27.9-18.29h0a30.48,30.48,0,0,1,27.82,42.89,136.35,136.35,0,0,1-9.06,17.09q-15.56,24.86-39.3,37.88t-54,13Q245.46,679.81,219.41,665.79Z" transform="translate(-0.2 -242.01)"/><path class="cls-1" d="M493.24,366.67h22.15l28,97.74,18.84-97.74h28.4l-33.74,146.5h-26l-26-102.37L477.73,513.17h-26L418,366.67h28.4l18.84,97.74Z" transform="translate(-0.2 -242.01)"/><path class="cls-1" d="M608.76,366.67h27.6v146.5h-27.6Zm10,0h88.13v26.6H618.73Zm0,60.46h77v26.6h-77Zm0,59.44h88.13v26.6H618.73Z" transform="translate(-0.2 -242.01)"/><path class="cls-1" d="M732,366.67h27.59v146.5H732Zm12.08,119.9h46.73q9.46,0,14.66-4.58t5.18-12.85v-.3a18.38,18.38,0,0,0-2.31-9.47,14.91,14.91,0,0,0-6.8-6,25.58,25.58,0,0,0-10.73-2.06H744.12v-26.6h46.73q8.56,0,13.25-4.33t4.68-12.2q0-7.05-4.68-11t-13.25-3.93H744.12v-26.6h47.64q14.21,0,24.27,4.69A33.65,33.65,0,0,1,831.34,385q5.24,8.91,5.24,21.41a32.92,32.92,0,0,1-3.37,15.16,28.23,28.23,0,0,1-9.83,10.84,39.86,39.86,0,0,1-15.5,5.74A39,39,0,0,1,824.44,444a29.8,29.8,0,0,1,10.48,11.94,38.58,38.58,0,0,1,3.57,17v.3q0,12.6-5.28,21.56a33.93,33.93,0,0,1-15.42,13.66q-10.11,4.68-24.32,4.68H744.12Z" transform="translate(-0.2 -242.01)"/><path class="cls-1" d="M436.87,544.72h27.22V689.26H436.87ZM450.58,663h34.68q13.41,0,20.77-6.46t7.35-18.3V595.72q0-11.84-7.35-18.3T485.26,571H450.58V544.72h34.08q18.09,0,30.86,6.06A43,43,0,0,1,535,568.48q6.64,11.63,6.65,28v41q0,15.6-6.4,27.24A43.83,43.83,0,0,1,516,682.8q-12.83,6.47-31.41,6.46h-34Z" transform="translate(-0.2 -242.01)"/><path class="cls-1" d="M587.16,544.72h27.23V689.26H587.16Zm9.84,0h87V571H597Zm0,59.64h76v26.25H597ZM597,663h87v26.24H597Z" transform="translate(-0.2 -242.01)"/><path class="cls-1" d="M712.61,544.72h28l30.71,96.43L802,544.72h28L782,689.26H760.7Z" transform="translate(-0.2 -242.01)"/></svg>