<svg id="Layer_1" data-name="Layer 1" xmlns="http://www.w3.org/2000/svg" xmlns:xlink="http://www.w3.org/1999/xlink" viewBox="0 0 1024 1024"><defs><style>.cls-1{fill:#082626;}.cls-2{fill:#0e4647;}.cls-3{fill:#1d888c;}.cls-4{opacity:0.31;fill:url(#radial-gradient);}.cls-5{fill:url(#linear-gradient);}.cls-6{fill:#00dde0;}.cls-7{fill:#00d3d6;}.cls-8{fill:#fff;}</style><radialGradient id="radial-gradient" cx="532.67" cy="518.02" r="484.98" gradientTransform="matrix(0.72, 0.72, -0.72, 0.71, 506.48, -235.2)" gradientUnits="userSpaceOnUse"><stop offset="0" stop-color="aqua"/><stop offset="1" stop-color="aqua" stop-opacity="0"/></radialGradient><linearGradient id="linear-gradient" x1="308.12" y1="850.22" x2="698.56" y2="173.96" gradientUnits="userSpaceOnUse"><stop offset="0" stop-color="aqua"/><stop offset="1" stop-color="#8fffff"/></linearGradient></defs><path class="cls-1" d="M808.74,272.44,483,125.37a34.2,34.2,0,0,0-34,3.4L158.69,337.35a34.21,34.21,0,0,0-14.07,31.17l35.52,355.66a34.21,34.21,0,0,0,20,27.77L525.86,899a34.18,34.18,0,0,0,34-3.4L850.14,687a34.21,34.21,0,0,0,14.07-31.17L828.69,300.21A34.21,34.21,0,0,0,808.74,272.44Z"/><path class="cls-2" d="M783.26,242.44l-339-113.33a34.2,34.2,0,0,0-33.51,6.83L143.13,372.85a34.21,34.21,0,0,0-10.85,32.43l71.35,350.23a34.22,34.22,0,0,0,22.67,25.61l339,113.32a34.2,34.2,0,0,0,33.51-6.82L866.43,650.71a34.21,34.21,0,0,0,10.84-32.43L805.92,268.05A34.21,34.21,0,0,0,783.26,242.44Z"/><path class="cls-3" d="M735.54,201.57,382.82,143.73a34.2,34.2,0,0,0-32,12.08L124.38,432.35a34.18,34.18,0,0,0-5.53,33.74L245.11,800.48a34.2,34.2,0,0,0,26.46,21.66L624.28,880a34.18,34.18,0,0,0,32-12.07L882.72,591.37a34.22,34.22,0,0,0,5.54-33.75L762,223.24A34.2,34.2,0,0,0,735.54,201.57Z"/><ellipse class="cls-4" cx="513.72" cy="514.16" rx="489.1" ry="493.39" transform="translate(-2.24 2.25) rotate(-0.25)"/><path class="cls-5" d="M888.16,533,713.88,834.9a41.86,41.86,0,0,1-36.26,20.92H329.05A41.86,41.86,0,0,1,292.8,834.9L258,774.54l-23.32-40.39-14.86-25.76-85.44-148L118.51,533a41.85,41.85,0,0,1,0-41.86L292.8,189.27a41.86,41.86,0,0,1,36.25-20.92H677.62a41.86,41.86,0,0,1,36.26,20.92L888.16,491.16A41.85,41.85,0,0,1,888.16,533Z"/><path class="cls-6" d="M855.92,533,697.76,807A41.87,41.87,0,0,1,661.5,827.9H345.17A41.87,41.87,0,0,1,308.92,807l-39.86-69L150.75,533a41.9,41.9,0,0,1,0-41.86L268.68,286.91l40.24-69.7a41.87,41.87,0,0,1,36.25-20.93H661.5a41.87,41.87,0,0,1,36.26,20.93l158.16,274A41.85,41.85,0,0,1,855.92,533Z"/><path class="cls-7" d="M497.61,571.14,365.46,732.53a41.9,41.9,0,0,1-39.16,14.79l-57.24-9.39L150.75,533a41.9,41.9,0,0,1,0-41.86L268.68,286.91l129.63,21.26a41.88,41.88,0,0,1,32.39,26.51l73.69,195.16A41.87,41.87,0,0,1,497.61,571.14Z"/><path class="cls-8" d="M219.33,710.12,115.68,529.48a39.18,39.18,0,0,1,.07-39.12L219.34,311.3A9,9,0,0,1,231.67,308h0A39.18,39.18,0,0,1,246,361.53l-83.29,144a9,9,0,0,0,0,9L246.12,660a39.17,39.17,0,0,1-14.48,53.48h0A9,9,0,0,1,219.33,710.12Z"/><path class="cls-8" d="M785,711.47,888.62,530.83a39.17,39.17,0,0,0-.07-39.11L785,312.65a9,9,0,0,0-12.32-3.29h0a39.18,39.18,0,0,0-14.3,53.53l83.29,144a9,9,0,0,1,0,9L758.18,661.33a39.18,39.18,0,0,0,14.48,53.48h0A9,9,0,0,0,785,711.47Z"/><path class="cls-8" d="M278.17,630.85a71.53,71.53,0,0,1-30.4-31.26Q237.29,579.07,237.29,550v-67.4q0-29.06,10.48-49.58a72,72,0,0,1,30.4-31.34q19.93-10.8,48-10.81,23.14,0,41.39,10t30.15,29a103.06,103.06,0,0,1,6.93,13.11,23.31,23.31,0,0,1-21.3,32.75h-.4A23.33,23.33,0,0,1,361.69,462a52.77,52.77,0,0,0-3.87-7,40.18,40.18,0,0,0-13.69-13.17,35.75,35.75,0,0,0-18-4.56q-13,0-22.12,5.32A34.42,34.42,0,0,0,290.08,458q-4.81,10.21-4.81,24.58V550q0,14.36,4.81,24.49A34.48,34.48,0,0,0,304,590q9.12,5.31,22.12,5.32a37.08,37.08,0,0,0,18.25-4.48,38.43,38.43,0,0,0,13.68-13.09,50,50,0,0,0,3.74-7,23.39,23.39,0,0,1,21.35-14h0a23.31,23.31,0,0,1,21.28,32.8,105.12,105.12,0,0,1-6.93,13.07q-11.91,19-30.06,29t-41.31,10Q298.11,641.57,278.17,630.85Z"/><path class="cls-8" d="M487.64,402.12h16.95L526,476.85l14.41-74.73h21.73l-25.81,112H516.46l-19.88-78.27-20.8,78.27H455.9l-25.81-112h21.73l14.41,74.73Z"/><path class="cls-8" d="M576,402.12h21.12v112H576Zm7.63,0h67.42v20.34H583.64Zm0,46.23h58.94v20.34H583.64Zm0,45.45h67.42v20.34H583.64Z"/><path class="cls-8" d="M670.32,402.12h21.11v112H670.32Zm9.24,91.68h35.75q7.25,0,11.21-3.5t4-9.82v-.24a14,14,0,0,0-1.77-7.24,11.38,11.38,0,0,0-5.2-4.58,19.55,19.55,0,0,0-8.21-1.58H679.56V446.5h35.75q6.56,0,10.13-3.31t3.59-9.33a10.35,10.35,0,0,0-3.59-8.39q-3.57-3-10.13-3H679.56V402.12H716q10.86,0,18.56,3.58a25.85,25.85,0,0,1,11.72,10.4,31.81,31.81,0,0,1,4,16.38,25.1,25.1,0,0,1-2.58,11.59,21.38,21.38,0,0,1-7.51,8.28,30.47,30.47,0,0,1-11.87,4.4,29.83,29.83,0,0,1,12.68,4.5,22.69,22.69,0,0,1,8,9.13,29.48,29.48,0,0,1,2.73,13v.23q0,9.64-4,16.49a25.94,25.94,0,0,1-11.79,10.44q-7.74,3.59-18.6,3.58H679.56Z"/><path class="cls-8" d="M444.52,538.27h20.83V648.8H444.52ZM455,628.73h26.53q10.26,0,15.89-4.94t5.63-14V577.26q0-9-5.63-14t-15.89-4.95H455V538.27h26.08q13.83,0,23.6,4.63a32.94,32.94,0,0,1,14.86,13.53q5.1,8.9,5.09,21.44v31.32q0,11.94-4.9,20.83A33.41,33.41,0,0,1,505,643.85q-9.81,4.95-24,4.95H455Z"/><path class="cls-8" d="M559.49,538.27h20.83V648.8H559.49Zm7.53,0h66.51v20.06H567Zm0,45.61h58.15V604H567Zm0,44.85h66.51V648.8H567Z"/><path class="cls-8" d="M655.46,538.27h21.43L700.38,612l23.49-73.73h21.44L708.52,648.8H692.25Z"/></svg>